<mxfile host="app.diagrams.net" modified="2023-11-12T12:50:54.107Z" agent="Mozilla/5.0 (Macintosh; Intel Mac OS X 10_15_7) AppleWebKit/537.36 (KHTML, like Gecko) Chrome/119.0.0.0 Safari/537.36" etag="SqMeKlPYdmsddlrdV6h3" version="22.1.0" type="github">
  <diagram id="C5RBs43oDa-KdzZeNtuy" name="Page-1">
    <mxGraphModel dx="954" dy="642" grid="1" gridSize="10" guides="1" tooltips="1" connect="1" arrows="1" fold="1" page="1" pageScale="1" pageWidth="827" pageHeight="1169" math="0" shadow="0">
      <root>
        <mxCell id="WIyWlLk6GJQsqaUBKTNV-0" />
        <mxCell id="WIyWlLk6GJQsqaUBKTNV-1" parent="WIyWlLk6GJQsqaUBKTNV-0" />
        <mxCell id="yTFZFlvSRuzMFblrfDPw-2" value="" style="edgeStyle=orthogonalEdgeStyle;rounded=0;orthogonalLoop=1;jettySize=auto;html=1;" edge="1" parent="WIyWlLk6GJQsqaUBKTNV-1" source="yTFZFlvSRuzMFblrfDPw-0" target="yTFZFlvSRuzMFblrfDPw-1">
          <mxGeometry relative="1" as="geometry" />
        </mxCell>
        <mxCell id="yTFZFlvSRuzMFblrfDPw-0" value="Start" style="ellipse;whiteSpace=wrap;html=1;" vertex="1" parent="WIyWlLk6GJQsqaUBKTNV-1">
          <mxGeometry x="55" y="40" width="90" height="50" as="geometry" />
        </mxCell>
        <mxCell id="yTFZFlvSRuzMFblrfDPw-4" value="" style="edgeStyle=orthogonalEdgeStyle;rounded=0;orthogonalLoop=1;jettySize=auto;html=1;" edge="1" parent="WIyWlLk6GJQsqaUBKTNV-1" source="yTFZFlvSRuzMFblrfDPw-1" target="yTFZFlvSRuzMFblrfDPw-3">
          <mxGeometry relative="1" as="geometry" />
        </mxCell>
        <mxCell id="yTFZFlvSRuzMFblrfDPw-1" value="Integer Tahun" style="whiteSpace=wrap;html=1;" vertex="1" parent="WIyWlLk6GJQsqaUBKTNV-1">
          <mxGeometry x="40" y="130" width="120" height="40" as="geometry" />
        </mxCell>
        <mxCell id="yTFZFlvSRuzMFblrfDPw-6" value="" style="edgeStyle=orthogonalEdgeStyle;rounded=0;orthogonalLoop=1;jettySize=auto;html=1;" edge="1" parent="WIyWlLk6GJQsqaUBKTNV-1" source="yTFZFlvSRuzMFblrfDPw-3" target="yTFZFlvSRuzMFblrfDPw-5">
          <mxGeometry relative="1" as="geometry" />
        </mxCell>
        <mxCell id="yTFZFlvSRuzMFblrfDPw-3" value="Input Tahun" style="shape=parallelogram;perimeter=parallelogramPerimeter;whiteSpace=wrap;html=1;fixedSize=1;" vertex="1" parent="WIyWlLk6GJQsqaUBKTNV-1">
          <mxGeometry x="40" y="210" width="120" height="40" as="geometry" />
        </mxCell>
        <mxCell id="yTFZFlvSRuzMFblrfDPw-12" style="edgeStyle=orthogonalEdgeStyle;rounded=0;orthogonalLoop=1;jettySize=auto;html=1;entryX=0.5;entryY=0;entryDx=0;entryDy=0;" edge="1" parent="WIyWlLk6GJQsqaUBKTNV-1" source="yTFZFlvSRuzMFblrfDPw-5" target="yTFZFlvSRuzMFblrfDPw-7">
          <mxGeometry relative="1" as="geometry" />
        </mxCell>
        <mxCell id="yTFZFlvSRuzMFblrfDPw-14" value="False" style="edgeLabel;html=1;align=center;verticalAlign=middle;resizable=0;points=[];" vertex="1" connectable="0" parent="yTFZFlvSRuzMFblrfDPw-12">
          <mxGeometry x="-0.1333" y="2" relative="1" as="geometry">
            <mxPoint y="1" as="offset" />
          </mxGeometry>
        </mxCell>
        <mxCell id="yTFZFlvSRuzMFblrfDPw-18" value="" style="edgeStyle=orthogonalEdgeStyle;rounded=0;orthogonalLoop=1;jettySize=auto;html=1;" edge="1" parent="WIyWlLk6GJQsqaUBKTNV-1" source="yTFZFlvSRuzMFblrfDPw-5" target="yTFZFlvSRuzMFblrfDPw-17">
          <mxGeometry relative="1" as="geometry" />
        </mxCell>
        <mxCell id="yTFZFlvSRuzMFblrfDPw-26" value="Text" style="edgeLabel;html=1;align=center;verticalAlign=middle;resizable=0;points=[];" vertex="1" connectable="0" parent="yTFZFlvSRuzMFblrfDPw-18">
          <mxGeometry x="0.0364" relative="1" as="geometry">
            <mxPoint as="offset" />
          </mxGeometry>
        </mxCell>
        <mxCell id="yTFZFlvSRuzMFblrfDPw-27" value="True" style="edgeLabel;html=1;align=center;verticalAlign=middle;resizable=0;points=[];" vertex="1" connectable="0" parent="yTFZFlvSRuzMFblrfDPw-18">
          <mxGeometry x="0.0545" y="4" relative="1" as="geometry">
            <mxPoint as="offset" />
          </mxGeometry>
        </mxCell>
        <mxCell id="yTFZFlvSRuzMFblrfDPw-5" value="Tahun % 4 = 0" style="rhombus;whiteSpace=wrap;html=1;" vertex="1" parent="WIyWlLk6GJQsqaUBKTNV-1">
          <mxGeometry x="25" y="290" width="150" height="120" as="geometry" />
        </mxCell>
        <mxCell id="yTFZFlvSRuzMFblrfDPw-13" style="edgeStyle=orthogonalEdgeStyle;rounded=0;orthogonalLoop=1;jettySize=auto;html=1;entryX=0.5;entryY=0;entryDx=0;entryDy=0;" edge="1" parent="WIyWlLk6GJQsqaUBKTNV-1" source="yTFZFlvSRuzMFblrfDPw-7" target="yTFZFlvSRuzMFblrfDPw-9">
          <mxGeometry relative="1" as="geometry" />
        </mxCell>
        <mxCell id="yTFZFlvSRuzMFblrfDPw-15" value="False" style="edgeLabel;html=1;align=center;verticalAlign=middle;resizable=0;points=[];" vertex="1" connectable="0" parent="yTFZFlvSRuzMFblrfDPw-13">
          <mxGeometry x="-0.1886" y="-2" relative="1" as="geometry">
            <mxPoint y="-2" as="offset" />
          </mxGeometry>
        </mxCell>
        <mxCell id="yTFZFlvSRuzMFblrfDPw-21" style="edgeStyle=orthogonalEdgeStyle;rounded=0;orthogonalLoop=1;jettySize=auto;html=1;entryX=0.5;entryY=0;entryDx=0;entryDy=0;" edge="1" parent="WIyWlLk6GJQsqaUBKTNV-1" source="yTFZFlvSRuzMFblrfDPw-7" target="yTFZFlvSRuzMFblrfDPw-19">
          <mxGeometry relative="1" as="geometry" />
        </mxCell>
        <mxCell id="yTFZFlvSRuzMFblrfDPw-25" value="True" style="edgeLabel;html=1;align=center;verticalAlign=middle;resizable=0;points=[];" vertex="1" connectable="0" parent="yTFZFlvSRuzMFblrfDPw-21">
          <mxGeometry x="-0.08" relative="1" as="geometry">
            <mxPoint as="offset" />
          </mxGeometry>
        </mxCell>
        <mxCell id="yTFZFlvSRuzMFblrfDPw-7" value="Tahun % 100 = 0" style="rhombus;whiteSpace=wrap;html=1;" vertex="1" parent="WIyWlLk6GJQsqaUBKTNV-1">
          <mxGeometry x="220" y="380" width="150" height="120" as="geometry" />
        </mxCell>
        <mxCell id="yTFZFlvSRuzMFblrfDPw-23" style="edgeStyle=orthogonalEdgeStyle;rounded=0;orthogonalLoop=1;jettySize=auto;html=1;entryX=0.5;entryY=0;entryDx=0;entryDy=0;" edge="1" parent="WIyWlLk6GJQsqaUBKTNV-1" source="yTFZFlvSRuzMFblrfDPw-9" target="yTFZFlvSRuzMFblrfDPw-22">
          <mxGeometry relative="1" as="geometry" />
        </mxCell>
        <mxCell id="yTFZFlvSRuzMFblrfDPw-24" value="True" style="edgeLabel;html=1;align=center;verticalAlign=middle;resizable=0;points=[];" vertex="1" connectable="0" parent="yTFZFlvSRuzMFblrfDPw-23">
          <mxGeometry y="-1" relative="1" as="geometry">
            <mxPoint as="offset" />
          </mxGeometry>
        </mxCell>
        <mxCell id="yTFZFlvSRuzMFblrfDPw-29" style="edgeStyle=orthogonalEdgeStyle;rounded=0;orthogonalLoop=1;jettySize=auto;html=1;entryX=0;entryY=0.5;entryDx=0;entryDy=0;" edge="1" parent="WIyWlLk6GJQsqaUBKTNV-1" source="yTFZFlvSRuzMFblrfDPw-9" target="yTFZFlvSRuzMFblrfDPw-28">
          <mxGeometry relative="1" as="geometry" />
        </mxCell>
        <mxCell id="yTFZFlvSRuzMFblrfDPw-40" value="False" style="edgeLabel;html=1;align=center;verticalAlign=middle;resizable=0;points=[];" vertex="1" connectable="0" parent="yTFZFlvSRuzMFblrfDPw-29">
          <mxGeometry x="-0.02" y="-1" relative="1" as="geometry">
            <mxPoint as="offset" />
          </mxGeometry>
        </mxCell>
        <mxCell id="yTFZFlvSRuzMFblrfDPw-9" value="Tahun % 400 = 0" style="rhombus;whiteSpace=wrap;html=1;" vertex="1" parent="WIyWlLk6GJQsqaUBKTNV-1">
          <mxGeometry x="420" y="490" width="150" height="120" as="geometry" />
        </mxCell>
        <mxCell id="yTFZFlvSRuzMFblrfDPw-38" style="edgeStyle=orthogonalEdgeStyle;rounded=0;orthogonalLoop=1;jettySize=auto;html=1;" edge="1" parent="WIyWlLk6GJQsqaUBKTNV-1" source="yTFZFlvSRuzMFblrfDPw-17">
          <mxGeometry relative="1" as="geometry">
            <mxPoint x="400" y="840" as="targetPoint" />
            <Array as="points">
              <mxPoint x="100" y="840" />
            </Array>
          </mxGeometry>
        </mxCell>
        <mxCell id="yTFZFlvSRuzMFblrfDPw-17" value="Output &quot;Tahun Kabisat&quot;" style="shape=parallelogram;perimeter=parallelogramPerimeter;whiteSpace=wrap;html=1;fixedSize=1;" vertex="1" parent="WIyWlLk6GJQsqaUBKTNV-1">
          <mxGeometry x="40" y="520" width="120" height="60" as="geometry" />
        </mxCell>
        <mxCell id="yTFZFlvSRuzMFblrfDPw-37" style="edgeStyle=orthogonalEdgeStyle;rounded=0;orthogonalLoop=1;jettySize=auto;html=1;" edge="1" parent="WIyWlLk6GJQsqaUBKTNV-1" source="yTFZFlvSRuzMFblrfDPw-19" target="yTFZFlvSRuzMFblrfDPw-34">
          <mxGeometry relative="1" as="geometry">
            <Array as="points">
              <mxPoint x="295" y="840" />
            </Array>
          </mxGeometry>
        </mxCell>
        <mxCell id="yTFZFlvSRuzMFblrfDPw-19" value="Output &quot;Tahun Kabisat&quot;" style="shape=parallelogram;perimeter=parallelogramPerimeter;whiteSpace=wrap;html=1;fixedSize=1;" vertex="1" parent="WIyWlLk6GJQsqaUBKTNV-1">
          <mxGeometry x="235" y="600" width="120" height="60" as="geometry" />
        </mxCell>
        <mxCell id="yTFZFlvSRuzMFblrfDPw-35" value="" style="edgeStyle=orthogonalEdgeStyle;rounded=0;orthogonalLoop=1;jettySize=auto;html=1;" edge="1" parent="WIyWlLk6GJQsqaUBKTNV-1" source="yTFZFlvSRuzMFblrfDPw-22" target="yTFZFlvSRuzMFblrfDPw-34">
          <mxGeometry relative="1" as="geometry" />
        </mxCell>
        <mxCell id="yTFZFlvSRuzMFblrfDPw-22" value="Output &quot;Tahun Kabisat&quot;" style="shape=parallelogram;perimeter=parallelogramPerimeter;whiteSpace=wrap;html=1;fixedSize=1;" vertex="1" parent="WIyWlLk6GJQsqaUBKTNV-1">
          <mxGeometry x="435" y="700" width="120" height="60" as="geometry" />
        </mxCell>
        <mxCell id="yTFZFlvSRuzMFblrfDPw-28" value="Output &quot;Bukan Tahun Kabisat&quot;" style="shape=parallelogram;perimeter=parallelogramPerimeter;whiteSpace=wrap;html=1;fixedSize=1;" vertex="1" parent="WIyWlLk6GJQsqaUBKTNV-1">
          <mxGeometry x="660" y="520" width="150" height="60" as="geometry" />
        </mxCell>
        <mxCell id="yTFZFlvSRuzMFblrfDPw-31" value="End" style="ellipse;whiteSpace=wrap;html=1;" vertex="1" parent="WIyWlLk6GJQsqaUBKTNV-1">
          <mxGeometry x="355" y="900" width="90" height="50" as="geometry" />
        </mxCell>
        <mxCell id="yTFZFlvSRuzMFblrfDPw-39" style="edgeStyle=orthogonalEdgeStyle;rounded=0;orthogonalLoop=1;jettySize=auto;html=1;entryX=0.5;entryY=0;entryDx=0;entryDy=0;" edge="1" parent="WIyWlLk6GJQsqaUBKTNV-1" source="yTFZFlvSRuzMFblrfDPw-34" target="yTFZFlvSRuzMFblrfDPw-31">
          <mxGeometry relative="1" as="geometry" />
        </mxCell>
        <mxCell id="yTFZFlvSRuzMFblrfDPw-34" value="" style="shape=waypoint;sketch=0;size=6;pointerEvents=1;points=[];fillColor=default;resizable=0;rotatable=0;perimeter=centerPerimeter;snapToPoint=1;" vertex="1" parent="WIyWlLk6GJQsqaUBKTNV-1">
          <mxGeometry x="390" y="830" width="20" height="20" as="geometry" />
        </mxCell>
        <mxCell id="yTFZFlvSRuzMFblrfDPw-36" style="edgeStyle=orthogonalEdgeStyle;rounded=0;orthogonalLoop=1;jettySize=auto;html=1;entryX=0.7;entryY=0.7;entryDx=0;entryDy=0;entryPerimeter=0;" edge="1" parent="WIyWlLk6GJQsqaUBKTNV-1" source="yTFZFlvSRuzMFblrfDPw-28" target="yTFZFlvSRuzMFblrfDPw-34">
          <mxGeometry relative="1" as="geometry">
            <Array as="points">
              <mxPoint x="730" y="840" />
            </Array>
          </mxGeometry>
        </mxCell>
      </root>
    </mxGraphModel>
  </diagram>
</mxfile>
